<?xml version="1.0" encoding="UTF-8"?><svg xmlns="http://www.w3.org/2000/svg" xmlns:xlink="http://www.w3.org/1999/xlink" viewBox="0 0 116 22.5"><defs><style>.e{fill:none;}.f{fill:#A994D8;}.g{clip-path:url(#d);}</style><clipPath id="d"><rect class="e" width="116" height="22.5"/></clipPath></defs><g id="a"/><g id="b"><g id="c"><rect class="f" x="4.56" y="3.45" width="4.89" height="15.62"/><polygon class="f" points="45.42 12.83 45.42 12.83 45.42 19.07 50.31 19.07 50.31 19.04 50.31 3.45 45.42 3.45 45.42 12.83"/><polygon class="f" points="28.32 7.7 33.23 7.7 33.23 19.07 38.13 19.07 38.13 7.7 43.01 7.7 43.01 3.45 28.32 3.45 28.32 7.7"/><g class="g"><path class="f" d="M64.77,4.38c-1.21-.66-2.57-.99-3.94-.96-1.43-.02-2.84,.33-4.1,1.02-1.19,.65-2.18,1.62-2.86,2.79-1.41,2.5-1.4,5.56,.03,8.05,.71,1.18,1.73,2.15,2.96,2.79,1.33,.69,2.81,1.03,4.31,1,1.19,.02,2.37-.2,3.48-.63,1.04-.42,1.96-1.09,2.68-1.96l-2.62-2.59c-.43,.5-.97,.89-1.57,1.16-.62,.26-1.3,.39-1.97,.38-.73,.02-1.44-.16-2.08-.51-.59-.34-1.06-.85-1.36-1.46-.1-.2-.18-.41-.24-.63l10.71-.05c.1-.33,.16-.66,.2-1,.03-.29,.05-.59,.05-.88,.03-1.36-.32-2.7-.99-3.88-.64-1.11-1.57-2.03-2.69-2.65m-5.81,3.17c.58-.36,1.25-.54,1.93-.52,.61-.02,1.22,.14,1.74,.46,.49,.32,.87,.77,1.09,1.31,.1,.24,.18,.48,.23,.74l-6.47,.04c.06-.2,.13-.39,.22-.57,.28-.59,.72-1.1,1.27-1.45h0Z"/><path class="f" d="M79.25,3.45c-1.43-.08-2.82,.45-3.84,1.45v-1.14h-4.76v14.97h4.75V10.54c-.06-.79,.19-1.57,.69-2.17,.5-.5,1.19-.76,1.89-.72,.36,0,.71,.06,1.05,.19,.28,.11,.53,.27,.74,.49l2.8-3.57c-.4-.42-.89-.76-1.43-.97-.6-.23-1.25-.34-1.89-.33"/><path class="f" d="M94.17,3.78c-1.97-.69-4.16-.26-5.73,1.12l-.02,.02v-1.16h-4.74v14.97h4.74V10.54c-.06-.79,.19-1.56,.69-2.17,.5-.5,1.19-.76,1.89-.72,.36,0,.71,.06,1.05,.18,.28,.1,.53,.27,.74,.49l2.8-3.57c-.4-.42-.89-.76-1.43-.97"/><path class="f" d="M106.79,3.76v1.25c-.41-.39-.89-.72-1.4-.97-.85-.4-1.79-.6-2.73-.58-1.3-.02-2.57,.33-3.68,1-1.09,.68-1.97,1.64-2.56,2.77-.64,1.24-.96,2.62-.94,4.02-.03,1.39,.3,2.76,.94,3.99,.6,1.13,1.49,2.09,2.57,2.77,1.1,.69,2.37,1.05,3.67,1.03,.95,.01,1.89-.18,2.75-.59,.5-.24,.97-.56,1.37-.95v1.22h4.65V3.76h-4.65Zm-3.14,11c-1.21,.03-2.34-.63-2.91-1.69-.6-1.14-.6-2.5,0-3.64,.28-.52,.7-.95,1.2-1.25,.52-.3,1.11-.46,1.71-.45,.61,0,1.22,.14,1.76,.45,.5,.29,.91,.72,1.17,1.23,.28,.56,.41,1.18,.4,1.8,.04,.94-.29,1.85-.91,2.56-.62,.66-1.51,1.03-2.42,.99h0Z"/><polygon class="f" points="18.74 6.23 23.04 8.71 18.74 11.2 14.44 8.71 18.74 6.23"/><polygon class="f" points="18.5 16.57 14.2 14.09 14.2 9.12 18.5 11.6 18.5 16.57"/><polygon class="f" points="23.27 14.09 18.97 16.57 18.97 11.61 23.27 9.12 23.27 14.09"/></g></g></g></svg>